# xmcd
#
# Track frame offsets:
#	150
#	9328
#	29127
#	46845
#	63814
#	80196
#	94215
#	110164
#	133427
#	151064
#	166282
#	183226
#	204169
#	222291
#	236144
#	252330
#	268489
#	286433
#	306945
#
# Disc length: 4205 seconds
#
# Revision: 6
# Processed by: cddbd v1.5.2PL0 Copyright (c) Steve Scherf et al.
# Submitted via: Jack! The Knife 19 Blackthorn
#
DISCID=1c106b13
DTITLE=Caparezza - Museica
DYEAR=2014
DGENRE=Rap
TTITLE0=Canzone All'entrata
TTITLE1=Avrai Ragione Tu (Ritratto)
TTITLE2=Mica Van Gogh
TTITLE3=Non Me Lo Posso Permettere
TTITLE4=Figli D'arte
TTITLE5=Comunque Dada
TTITLE6=Giotto Beat
TTITLE7=Cover
TTITLE8=China Town
TTITLE9=Canzone A Metà
TTITLE10=Teste Di Modì
TTITLE11=Argenti Vive
TTITLE12=Compro Horror
TTITLE13=Kitaro
TTITLE14=Troppo Politico
TTITLE15=Sfogati
TTITLE16=Fai Da Tela
TTITLE17=E' Tardi
TTITLE18=Canzone All'uscita
EXTD=Michele Salvemini
EXTT0=Michele Salvemini
EXTT1=Michele Salvemini
EXTT2=Michele Salvemini
EXTT3=Michele Salvemini
EXTT4=Michele Salvemini
EXTT5=Michele Salvemini
EXTT6=Michele Salvemini
EXTT7=Michele Salvemini
EXTT8=Michele Salvemini
EXTT9=Michele Salvemini
EXTT10=Michele Salvemini
EXTT11=Michele Salvemini
EXTT12=Michele Salvemini
EXTT13=Salvemini, Shigeru, Izumi
EXTT14=Michele Salvemini
EXTT15=Michele Salvemini
EXTT16=Michele Salvemini
EXTT17=Salvemini, Franti
EXTT18=Michele Salvemini
PLAYORDER=
